<svg width="192" height="62" viewBox="0 0 192 62" fill="none" xmlns="http://www.w3.org/2000/svg">
<path d="M0.437988 31C0.437988 13.8792 14.3172 0 31.438 0H160.373C177.493 0 191.373 13.8792 191.373 31V62H31.438C14.3172 62 0.437988 48.1208 0.437988 31V31Z" fill="#ED1B2F"/>
<g clip-path="url(#clip0_3045_9583)">
<path d="M58.2739 15.1924C53.8926 17.2094 50.9168 20.259 50.8999 20.2764C51.7164 21.0437 52.2608 21.907 52.8052 22.8662C56.0719 29.4853 51.7162 38.5984 41.1899 44.0664C31.934 48.8629 20.7722 47.7119 17.5054 41.0928C14.2387 34.4737 18.5951 25.6479 28.8491 20.084C35.564 16.4389 43.0956 16.055 48.0864 18.4531C41.2806 22.77 37.9233 31.7881 37.9233 31.7881C33.5676 25.073 23.4038 26.6074 23.4038 26.6074C38.9567 29.0928 37.9308 41.5797 37.9233 41.668C39.2846 34.7615 44.1838 26.5122 45.3638 24.8809C48.7381 20.3454 52.2921 17.8403 54.8823 16.4883C55.4921 16.17 56.0485 15.9158 56.5366 15.7139C57.8781 15.1589 58.7036 15 58.7036 15L58.2739 15.1924ZM34.2935 34.3779C32.0249 32.6513 27.6694 32.3634 25.2192 32.7471C20.8635 33.5145 20.9541 36.5844 21.4985 37.6396C23.5857 41.6683 29.4833 42.1482 30.4819 42.2441C36.2461 42.7202 37.4515 40.0777 37.4692 40.0381C35.4729 41.3808 32.3874 40.9965 31.48 40.8047C26.3986 40.0372 24.856 38.0231 24.856 36.4883C24.856 32.747 34.2935 34.3779 34.2935 34.3779Z" fill="white"/>
</g>
<path fill-rule="evenodd" clip-rule="evenodd" d="M99.7802 21.8621H94.4819L87.3971 35.472H87.3355L85.364 21.8621H80.0658L83.331 41.692H88.8757L99.7802 21.8621Z" fill="white"/>
<path fill-rule="evenodd" clip-rule="evenodd" d="M137.238 21L133.295 41.6921H128.489L132.432 21H137.238Z" fill="white"/>
<path fill-rule="evenodd" clip-rule="evenodd" d="M160.094 40.6451C161.511 41.261 163.544 42.1847 166.44 41.8768C171.368 41.3225 173.832 39.8445 174.202 36.2111C174.695 31.346 167.056 33.0703 167.056 30.7917C167.056 29.7448 168.657 29.2522 169.828 29.2522C171.491 29.2522 173.216 30.1759 174.695 31.0381L175.373 27.1583C173.524 26.5425 170.875 26.173 169.643 26.173C166.07 26.173 162.004 28.3284 162.004 31.7771C162.004 36.8885 169.15 35.1026 169.15 37.258C169.15 39.4135 167.364 38.736 166.563 38.736C165.146 38.736 162.866 38.2434 160.895 36.5806L160.094 40.6451Z" fill="white"/>
<path fill-rule="evenodd" clip-rule="evenodd" d="M122.822 21.8621H117.585L110.5 35.472H110.439L108.406 21.8621H103.169L106.434 41.692H111.979L122.822 21.8621Z" fill="white"/>
<path fill-rule="evenodd" clip-rule="evenodd" d="M136.56 41.6921H141.304L145.308 21H140.503L136.56 41.6921Z" fill="white"/>
<path fill-rule="evenodd" clip-rule="evenodd" d="M153.009 41.6921H157.999C158.554 37.1964 159.663 33.6862 159.848 31.346C160.156 28.0821 158.184 26.2961 153.564 26.2961C151.284 26.2961 149.436 26.6041 147.403 26.9736L146.91 30.7302C148.573 29.868 150.606 29.5601 152.455 29.5601C154.303 29.5601 155.042 30.2991 155.042 31.346C155.042 32.3929 155.042 31.7771 154.981 31.9003C154.303 31.9003 153.379 32.0234 152.331 32.085C147.896 32.3313 144.507 34.1788 144.199 37.7507C143.953 40.7067 145.37 42 148.512 42C151.654 42 151.654 41.3226 153.256 40.0909V40.3988L153.009 41.6305V41.6921ZM149.005 37.6891C148.82 36.0264 150.114 34.7947 152.824 34.7331C153.132 34.7331 153.687 34.6715 154.364 34.6099C154.18 36.2727 153.872 37.7507 153.872 37.7507C153.071 38.3665 152.208 38.736 151.161 38.7976C150.114 38.9208 149.128 38.6129 149.005 37.6891Z" fill="white"/>
<path fill-rule="evenodd" clip-rule="evenodd" d="M60.4748 41.692H65.5882L67.6829 37.4427H74.2749L74.7061 41.692H79.8812L76.6776 21.8621H71.1945L60.4132 41.692H60.4748ZM73.782 33.9325H69.4695L72.8579 27.2814L73.7204 33.9325H73.782Z" fill="white"/>
<path fill-rule="evenodd" clip-rule="evenodd" d="M120.481 41.6921H125.286L128.12 26.6657H123.315L120.481 41.6921ZM123.623 24.5719H128.736L129.414 21H124.3L123.561 24.5719H123.623Z" fill="white"/>
<defs>
<clipPath id="clip0_3045_9583">
<rect width="45.6848" height="32" fill="white" transform="translate(16.438 15)"/>
</clipPath>
</defs>
</svg>
